<?xml version="1.0" standalone="no"?>
<!DOCTYPE svg PUBLIC "-//W3C//DTD SVG 20010904//EN"
 "http://www.w3.org/TR/2001/REC-SVG-20010904/DTD/svg10.dtd">
<svg version="1.0" xmlns="http://www.w3.org/2000/svg"
 width="512.000000pt" height="512.000000pt" viewBox="0 0 512.000000 512.000000"
 preserveAspectRatio="xMidYMid meet">
<metadata>
Created by potrace 1.11, written by Peter Selinger 2001-2013
</metadata>
<g transform="translate(0.000000,512.000000) scale(0.100000,-0.100000)"
fill="#000000" stroke="none">
<path d="M3926 4562 c-4 -4 -316 -8 -694 -9 -378 -1 -696 -4 -707 -6 -89 -17
-200 -111 -233 -198 -20 -51 -21 -74 -21 -424 l0 -370 30 -62 c36 -75 89 -123
169 -152 77 -28 140 -76 164 -125 26 -52 13 -88 -70 -200 -36 -48 -63 -90 -61
-92 8 -8 101 27 164 62 127 70 206 145 255 244 18 36 36 68 41 71 15 11 141 9
149 -4 5 -8 8 -8 8 -1 0 17 150 18 150 2 0 -9 2 -10 8 -2 10 16 464 16 474 0
6 -8 8 -8 8 1 0 8 89 11 338 11 292 0 344 3 387 17 105 36 181 112 210 208 22
74 22 720 0 794 -20 68 -65 127 -128 167 -67 43 -115 56 -217 58 -45 2 -84 6
-86 10 -3 5 -11 5 -17 1 -17 -11 -137 -12 -143 -1 -3 5 -11 5 -17 0 -14 -11
-127 -10 -143 0 -6 4 -14 4 -18 0z"/>
<path d="M1645 2720 c-4 -7 -16 -10 -26 -7 -10 3 -22 1 -25 -4 -4 -6 -11 -6
-19 1 -8 6 -16 7 -19 2 -3 -5 -23 -6 -46 -2 -22 4 -40 4 -40 1 0 -4 -17 -6
-37 -5 -21 0 -46 -3 -57 -8 -10 -6 -16 -6 -13 -1 3 5 -3 9 -13 10 -11 1 -22
-2 -25 -8 -3 -5 2 -6 12 -3 15 6 15 4 -2 -9 -23 -18 -36 -13 -29 11 4 12 3 14
-3 4 -6 -7 -25 -15 -43 -17 -19 -3 -37 -10 -42 -17 -5 -9 -8 -7 -9 7 0 11 -3
14 -6 7 -2 -6 -9 -10 -14 -6 -5 3 -9 -3 -10 -13 0 -10 -3 -13 -6 -5 -2 6 -9
12 -14 12 -6 0 -8 -4 -5 -9 3 -4 -6 -6 -21 -3 -20 4 -24 2 -18 -9 7 -12 6 -12
-7 -1 -13 10 -17 10 -22 -5 -6 -15 -8 -15 -16 -3 -8 13 -10 13 -10 1 0 -8 -3
-11 -7 -8 -3 4 -17 0 -31 -9 -13 -9 -21 -11 -18 -5 5 7 1 9 -8 5 -9 -3 -16
-10 -16 -14 0 -5 -8 -7 -17 -5 -10 1 -24 -3 -32 -9 -7 -6 -21 -11 -30 -11 -9
0 -15 -5 -14 -11 1 -6 -9 -10 -23 -8 -13 1 -22 -1 -19 -6 3 -5 -8 -11 -24 -15
-16 -3 -32 -12 -35 -20 -3 -8 -14 -12 -26 -10 -11 2 -20 -1 -20 -6 0 -6 -6 -7
-12 -3 -9 5 -8 2 1 -9 12 -15 12 -17 -3 -11 -10 4 -23 -2 -35 -15 -14 -16 -21
-18 -24 -9 -4 10 -6 10 -6 1 -1 -7 -8 -13 -17 -13 -8 0 -13 -4 -9 -9 3 -5 -4
-12 -15 -16 -11 -3 -20 -11 -20 -16 0 -6 -5 -7 -12 -3 -7 5 -9 2 -5 -9 4 -11
2 -14 -9 -10 -7 3 -14 0 -14 -6 0 -6 -6 -11 -14 -11 -8 0 -18 -5 -22 -12 -4
-7 -3 -8 4 -4 7 4 12 3 12 -3 0 -5 -9 -13 -20 -16 -11 -3 -20 -13 -20 -21 0
-8 -5 -12 -11 -9 -6 4 -13 -2 -16 -14 -3 -11 -9 -18 -14 -15 -5 3 -9 -2 -9
-11 0 -9 -5 -13 -10 -10 -6 4 -10 3 -9 -2 3 -20 -2 -34 -11 -28 -6 4 -7 -1 -3
-11 4 -12 3 -15 -5 -10 -7 4 -12 1 -12 -9 0 -9 -4 -14 -9 -11 -5 4 -7 -4 -3
-16 3 -14 1 -19 -6 -14 -8 5 -10 2 -6 -8 3 -9 1 -16 -6 -16 -6 0 -8 -4 -5 -10
3 -5 1 -10 -5 -10 -7 0 -9 -8 -5 -20 5 -15 2 -20 -12 -21 -11 0 -13 -3 -5 -6
10 -4 10 -8 1 -19 -6 -8 -8 -14 -5 -14 4 0 2 -9 -4 -20 -8 -15 -8 -20 2 -20 6
0 3 -7 -8 -16 -10 -8 -13 -13 -6 -9 15 8 13 -30 -2 -54 -6 -10 -5 -12 2 -7 8
5 12 -1 12 -14 0 -12 5 -18 10 -15 6 3 10 2 10 -4 0 -6 7 -7 17 -4 12 5 14 3
8 -8 -7 -12 -6 -12 7 -1 10 8 19 9 22 3 6 -10 13 -9 59 4 17 4 33 3 41 -4 11
-9 16 -9 22 0 5 8 3 9 -6 4 -8 -5 -11 -4 -6 3 4 6 13 9 21 6 8 -4 12 -11 9
-16 -4 -6 5 -2 20 7 25 17 26 17 19 -1 -6 -17 -5 -17 10 -5 12 9 17 10 17 2 0
-7 5 -9 10 -6 6 4 7 11 4 17 -4 7 0 7 12 0 24 -13 34 -13 59 1 18 9 18 8 7 -6
-12 -14 -10 -15 10 -13 13 1 33 8 46 15 16 9 22 9 20 0 -2 -6 3 -14 11 -17 8
-3 11 0 7 7 -4 6 -2 11 3 11 6 0 11 -4 11 -10 0 -5 5 -10 11 -10 5 0 7 6 3 13
-5 8 -2 8 9 -2 10 -8 17 -9 17 -3 0 11 19 9 63 -4 22 -6 22 -6 2 9 -19 14 -18
15 8 10 15 -3 24 -10 21 -15 -4 -6 4 -5 16 2 12 7 25 8 29 4 12 -17 30 -14 24
4 -5 13 -3 15 7 5 9 -8 19 -9 31 -2 15 8 17 6 12 -8 -6 -16 -5 -16 10 -4 12 9
17 10 17 2 0 -7 5 -9 10 -6 6 4 7 12 3 18 -3 7 2 5 13 -4 20 -16 24 -17 67 -5
17 5 32 4 41 -3 11 -9 16 -9 22 0 5 8 3 9 -6 4 -8 -5 -11 -4 -6 3 4 6 13 9 21
6 8 -4 13 -9 10 -13 -2 -4 2 -8 10 -8 8 0 12 4 9 9 -8 12 10 10 23 -3 8 -8 13
-7 18 2 6 8 4 10 -5 4 -8 -5 -11 -4 -6 3 4 6 13 9 21 6 8 -4 12 -11 9 -16 -4
-6 5 -2 20 7 25 17 26 17 19 -1 -6 -17 -5 -17 10 -5 12 9 17 10 17 2 0 -7 5
-9 10 -6 6 4 7 12 3 18 -3 7 2 5 13 -4 20 -16 24 -17 67 -5 17 5 32 4 41 -3
11 -9 16 -9 22 0 5 8 3 9 -6 4 -8 -5 -11 -4 -6 3 4 6 13 9 21 6 8 -4 12 -11 9
-16 -4 -6 5 -2 20 7 25 17 26 17 19 -1 -6 -17 -5 -17 10 -5 12 9 17 10 17 2 0
-7 5 -9 10 -6 6 4 8 11 5 16 -3 5 1 6 9 3 9 -3 13 -11 9 -18 -5 -8 -3 -8 8 0
22 17 58 24 53 10 -3 -7 2 -13 10 -13 8 0 13 4 10 9 -8 12 10 10 23 -3 8 -8
13 -7 18 2 6 8 4 10 -5 4 -8 -5 -11 -4 -6 3 4 6 13 9 21 6 8 -4 12 -11 9 -16
-4 -6 5 -2 20 7 25 17 26 17 19 -1 -6 -17 -5 -17 10 -5 12 9 17 10 17 2 0 -7
5 -9 10 -6 6 4 7 12 3 18 -3 7 2 5 13 -4 20 -16 24 -17 67 -5 17 5 32 4 41 -3
11 -9 16 -9 22 0 5 8 3 9 -6 4 -8 -5 -11 -4 -6 3 4 6 13 9 21 6 8 -4 12 -11 8
-17 -4 -6 -1 -7 8 -1 8 5 25 10 39 11 20 3 22 1 10 -7 -8 -5 -11 -10 -6 -10 5
0 18 8 28 17 18 16 18 16 12 0 -5 -13 -2 -16 10 -11 9 3 13 11 9 18 -5 8 -3 8
8 0 8 -6 24 -10 37 -8 17 3 21 0 16 -8 -5 -9 -2 -8 9 1 10 8 20 11 24 8 3 -4
12 -2 20 5 11 8 12 7 7 -6 -5 -12 -2 -15 10 -10 9 3 14 9 12 13 -3 4 4 7 14 7
12 0 16 -5 12 -16 -5 -13 -3 -13 11 -1 12 9 17 10 17 2 0 -7 5 -9 10 -6 6 4 8
11 5 16 -3 5 1 6 9 3 9 -3 14 -9 12 -13 -3 -4 4 -7 14 -7 15 0 17 3 7 15 -10
12 -9 13 7 4 10 -6 27 -8 37 -6 11 3 25 0 33 -6 11 -9 16 -9 22 0 5 8 3 9 -6
4 -8 -5 -11 -4 -6 3 4 6 13 9 21 6 8 -4 12 -11 9 -16 -4 -6 5 -2 20 7 25 17
26 17 19 -1 -6 -17 -5 -17 10 -5 12 9 17 10 17 2 0 -7 5 -9 10 -6 6 4 8 11 5
16 -3 5 1 6 9 3 9 -3 13 -11 9 -18 -5 -8 -3 -8 8 0 18 14 80 16 95 3 8 -7 15
-6 20 2 5 8 3 9 -6 4 -8 -5 -11 -4 -6 3 4 6 13 9 21 6 8 -4 12 -11 8 -17 -4
-6 -1 -7 8 -1 23 14 52 15 61 2 6 -10 8 -8 8 4 0 11 5 15 14 12 8 -3 17 0 22
7 5 8 3 10 -7 5 -8 -4 -5 0 5 8 11 9 14 16 8 16 -7 0 -12 10 -12 23 0 18 2 19
10 7 5 -8 10 -10 10 -4 0 5 -6 16 -12 22 -10 10 -10 15 2 22 12 8 11 10 -5 11
-12 0 -15 3 -7 6 10 4 9 10 -4 30 -9 14 -11 22 -5 19 18 -11 13 5 -6 21 -11 8
-12 11 -3 7 13 -7 13 -6 1 9 -8 10 -11 20 -7 24 3 3 -2 12 -13 19 -11 8 -17
23 -15 39 2 23 0 25 -14 13 -9 -7 -14 -8 -10 -4 4 5 2 16 -5 24 -6 9 -7 13 -1
9 6 -3 11 0 11 8 0 8 -4 12 -9 9 -4 -3 -15 1 -22 9 -11 11 -12 17 -3 27 9 10
9 11 -1 6 -7 -4 -15 -1 -18 8 -3 9 -12 16 -20 16 -8 0 -14 6 -14 14 0 8 -7 17
-16 20 -9 3 -14 12 -11 20 4 10 -1 12 -16 9 -14 -3 -18 -2 -10 4 8 6 3 12 -18
22 -16 7 -29 20 -29 29 0 15 -2 15 -10 2 -8 -13 -10 -12 -10 3 0 9 -7 17 -15
17 -9 0 -18 7 -21 15 -4 8 -10 12 -15 9 -5 -3 -9 0 -9 5 0 6 -6 11 -14 11 -8
0 -16 7 -19 15 -4 8 -15 12 -27 10 -13 -2 -20 1 -20 11 0 8 -4 12 -10 9 -5 -3
-10 2 -10 12 0 15 -2 16 -10 3 -6 -10 -10 -11 -10 -2 0 6 -9 12 -20 12 -11 0
-20 5 -20 11 0 5 -4 7 -10 4 -5 -3 -10 -1 -10 4 0 6 -9 11 -21 11 -13 0 -18 4
-13 12 4 7 3 8 -5 4 -6 -4 -23 0 -38 9 -14 9 -23 13 -19 7 3 -6 -4 -5 -19 1
-14 7 -25 15 -25 20 0 4 -4 7 -10 7 -6 0 -9 -4 -8 -9 2 -5 -1 -9 -7 -10 -5 -1
-10 5 -10 12 0 6 -9 11 -19 9 -12 -2 -16 1 -11 10 6 10 5 10 -5 1 -13 -12 -43
-7 -35 7 4 6 -19 10 -88 14 -17 1 -25 5 -22 14 3 9 0 10 -14 3 -10 -6 -21 -7
-25 -4 -4 4 -12 8 -19 9 -7 1 -21 5 -32 9 -16 5 -17 5 -5 -4 12 -8 11 -10 -7
-8 -12 0 -21 4 -21 7 2 18 -4 21 -17 10 -12 -10 -18 -10 -30 0 -11 9 -19 10
-26 3 -8 -8 -19 -7 -37 3 -18 9 -28 10 -31 3 -1 -5 -9 -2 -17 8 -11 14 -13 15
-8 2 4 -13 0 -15 -23 -11 -15 2 -33 9 -40 14 -7 6 -14 5 -18 -2z m-140 -430
c3 -6 -1 -7 -9 -4 -18 7 -21 14 -7 14 6 0 13 -4 16 -10z m-1060 -419 c-9 -8
-36 -10 -30 -2 2 4 11 8 20 8 8 0 13 -3 10 -6z m720 0 c-9 -8 -36 -10 -30 -2
2 4 11 8 20 8 8 0 13 -3 10 -6z m320 0 c-9 -8 -36 -10 -30 -2 2 4 11 8 20 8 8
0 13 -3 10 -6z m480 0 c-9 -8 -36 -10 -30 -2 2 4 11 8 20 8 8 0 13 -3 10 -6z"/>
<path d="M750 1856 c0 -2 8 -10 18 -17 15 -13 16 -12 3 4 -13 16 -21 21 -21
13z"/>
<path d="M1544 1782 c6 -10 1 -12 -24 -9 -22 4 -33 1 -37 -9 -4 -12 -8 -12
-19 3 -9 11 -13 13 -12 4 2 -7 -7 -15 -20 -17 -16 -3 -21 0 -16 8 5 7 3 8 -5
4 -7 -5 -10 -14 -7 -22 3 -8 1 -14 -4 -14 -6 0 -10 6 -10 13 -1 8 -5 7 -13 -4
-7 -9 -20 -15 -30 -13 -9 1 -15 -1 -13 -5 3 -4 -4 -13 -16 -20 -16 -10 -19
-10 -13 1 3 7 1 6 -7 -2 -25 -29 -83 -67 -95 -63 -7 3 -13 -3 -13 -12 0 -15
-2 -16 -17 -4 -14 12 -16 12 -8 0 6 -11 4 -13 -8 -8 -10 3 -17 2 -17 -4 0 -6
-7 -6 -20 1 -16 9 -18 8 -14 -5 7 -17 -19 -17 -45 -1 -11 7 -13 5 -8 -7 4 -11
2 -14 -9 -10 -7 3 -14 9 -14 13 0 4 -7 10 -14 13 -11 4 -13 1 -9 -11 6 -14 4
-15 -9 -5 -8 7 -19 9 -23 5 -5 -4 -5 -2 -2 4 4 7 -2 14 -13 17 -11 3 -18 1
-14 -4 3 -5 0 -9 -5 -9 -6 0 -11 7 -11 16 0 11 -6 15 -18 12 -10 -3 -23 1 -30
9 -7 7 -17 11 -23 8 -5 -4 -9 -1 -9 6 0 8 -5 7 -17 -2 -9 -8 -14 -9 -11 -4 8
13 -12 31 -37 31 -29 1 -56 15 -49 25 3 5 -2 6 -10 3 -10 -4 -16 -1 -16 7 0
11 -3 11 -10 -1 -8 -13 -10 -13 -10 1 0 12 -7 15 -25 11 -15 -2 -25 0 -25 7 0
7 -5 9 -10 6 -6 -4 -18 -1 -27 7 -15 11 -16 11 -10 -6 6 -16 5 -17 -7 -7 -8 7
-23 11 -33 9 -10 -1 -24 1 -30 5 -7 5 -13 4 -13 -1 0 -6 -10 -8 -22 -4 -16 4
-19 2 -13 -9 7 -12 6 -12 -7 -1 -11 9 -18 10 -23 2 -3 -5 -15 -10 -25 -10 -10
0 -32 -14 -49 -30 -16 -17 -35 -29 -42 -28 -6 2 -13 -6 -15 -16 -1 -11 -10
-23 -18 -28 -19 -10 -17 -58 1 -58 7 0 13 -7 13 -15 0 -16 9 -19 34 -9 9 3 13
10 10 15 -3 5 -1 9 5 9 5 0 12 -6 14 -12 4 -9 6 -7 6 3 1 9 13 29 27 45 15 16
23 23 19 15 -5 -9 -1 -9 17 3 14 9 28 13 32 9 4 -4 9 3 13 16 4 16 8 19 14 10
6 -10 11 -10 25 2 10 8 15 9 11 3 -5 -8 7 -12 35 -12 24 -1 44 -5 46 -11 2 -5
10 -7 18 -4 8 3 14 1 14 -5 0 -5 12 -7 26 -4 19 3 25 1 20 -7 -5 -7 2 -11 18
-11 13 0 26 -5 28 -10 2 -6 13 -12 26 -13 12 0 22 -4 22 -7 0 -4 22 -13 50
-20 28 -7 50 -17 50 -21 0 -4 7 -10 16 -13 8 -3 13 -2 10 3 -4 5 3 7 14 4 11
-3 20 -9 20 -13 0 -5 11 -7 25 -5 15 1 29 -4 35 -14 8 -14 9 -14 10 2 0 16 2
17 15 3 9 -8 27 -13 43 -11 15 2 34 4 42 4 13 1 13 2 0 11 -9 6 -10 10 -3 10
6 0 15 -5 18 -11 5 -6 11 -4 19 7 10 13 15 14 20 5 6 -9 12 -7 23 6 8 10 12
12 8 6 -3 -7 -2 -13 3 -13 6 0 12 7 16 15 3 9 12 12 22 8 13 -5 15 -3 9 7 -6
10 -4 12 8 7 10 -4 16 -2 14 6 -1 7 6 11 17 9 11 -2 15 1 11 7 -3 6 -1 11 5
11 10 0 21 7 54 37 10 9 16 9 25 0 7 -7 11 -7 9 -2 -2 6 2 11 7 13 6 2 18 11
28 19 9 9 17 13 17 8 0 -4 7 -2 15 5 13 11 14 10 9 -4 -3 -9 -1 -16 5 -16 6 0
11 6 11 14 0 9 7 12 20 9 11 -3 26 0 34 6 11 9 16 9 22 0 5 -8 3 -9 -6 -4 -9
5 -11 4 -6 -3 4 -8 15 -8 31 -2 18 7 28 5 41 -7 9 -10 18 -12 22 -7 5 7 15 6
29 -1 13 -7 21 -14 18 -17 -3 -2 2 -5 10 -5 10 0 14 6 10 16 -4 13 -2 13 8 -1
8 -10 17 -15 20 -11 4 3 7 1 7 -6 0 -7 5 -9 10 -6 6 3 10 0 10 -7 0 -9 3 -9
10 2 6 10 10 11 10 3 0 -7 12 -13 26 -13 14 0 23 -4 19 -9 -3 -5 -1 -12 5 -16
5 -3 10 -1 10 6 0 8 4 8 13 2 6 -6 20 -9 29 -8 9 2 22 -3 29 -11 6 -8 15 -11
20 -8 5 3 9 1 9 -4 0 -6 7 -13 16 -16 8 -3 13 -2 10 3 -3 5 1 11 9 14 10 4 12
1 8 -10 -5 -12 -1 -14 15 -8 12 3 22 3 22 -2 0 -5 19 -8 43 -7 23 1 47 -3 54
-8 7 -6 14 -5 19 3 5 8 3 9 -6 4 -8 -5 -11 -4 -6 3 9 14 38 3 30 -12 -3 -6 0
-4 8 4 17 19 38 23 38 8 0 -10 2 -10 9 0 4 8 11 13 15 13 19 -3 27 0 22 8 -4
5 3 7 14 4 12 -3 20 0 20 7 0 9 4 9 17 -1 12 -10 15 -10 9 -1 -5 8 2 14 23 18
17 4 28 10 25 15 -3 5 4 9 16 9 11 0 23 7 26 15 5 13 9 13 22 3 10 -9 13 -9 9
-1 -4 7 1 14 13 18 11 4 18 11 14 16 -7 13 19 7 28 -6 5 -6 8 -3 8 7 0 9 5 20
12 24 6 4 8 3 5 -3 -4 -6 4 -10 18 -10 14 0 22 4 19 9 -4 6 3 5 15 -1 16 -9
21 -9 21 1 0 6 7 3 16 -8 8 -10 12 -12 8 -4 -6 12 -3 11 12 -2 15 -13 23 -14
39 -6 11 6 17 7 13 3 -8 -8 28 -39 47 -40 19 -2 50 -19 58 -32 10 -17 31 -17
21 0 -5 9 -3 9 7 -1 8 -7 15 -17 15 -22 1 -6 2 -13 3 -16 0 -4 9 0 18 7 9 8
14 10 11 4 -3 -5 0 -16 8 -23 10 -9 14 -9 14 -1 0 8 4 8 15 -1 11 -9 15 -9 15
-1 0 7 4 9 10 6 6 -4 7 1 3 11 -4 12 -3 15 5 10 18 -11 15 36 -3 60 -15 19
-15 19 -9 -1 7 -20 7 -20 -9 0 -8 11 -13 23 -11 27 3 4 -2 5 -10 2 -10 -4 -16
-1 -16 7 0 7 -3 9 -7 6 -3 -4 -12 1 -20 11 -9 10 -11 11 -7 2 7 -13 5 -13 -9
-1 -9 7 -15 17 -12 20 2 4 -2 8 -10 8 -8 0 -11 -5 -8 -11 4 -6 -1 -5 -10 3 -9
7 -14 18 -10 25 4 6 -2 4 -12 -4 -11 -9 -16 -10 -11 -2 5 8 1 12 -13 12 -11 0
-22 4 -25 9 -3 5 -15 11 -26 14 -11 3 -18 1 -14 -4 3 -5 -2 -6 -10 -3 -9 3
-13 11 -10 16 4 6 -4 5 -16 -2 -17 -9 -21 -9 -15 0 5 8 1 11 -11 8 -11 -2 -25
3 -32 12 -8 8 -10 9 -7 2 5 -10 -3 -12 -34 -9 -23 2 -41 0 -41 -6 0 -5 -8 -3
-17 4 -9 8 -14 9 -10 3 3 -6 -5 -16 -19 -23 -31 -14 -37 -14 -28 1 4 7 3 8 -5
4 -6 -4 -9 -12 -6 -17 4 -5 0 -10 -7 -10 -7 -1 -18 -2 -25 -3 -7 0 -19 -10
-28 -21 -9 -11 -14 -13 -10 -5 4 10 2 9 -8 -2 -8 -10 -17 -15 -20 -11 -4 3 -7
1 -7 -6 0 -7 -4 -10 -9 -7 -5 4 -11 1 -13 -4 -2 -6 -17 -12 -33 -14 -17 -2
-34 -4 -38 -5 -5 0 -6 -5 -3 -10 3 -4 -6 -7 -19 -5 -14 1 -25 -2 -25 -7 0 -6
-6 -7 -12 -2 -7 4 -19 8 -26 9 -10 2 -11 -1 -1 -12 10 -12 9 -13 -5 -8 -9 3
-16 10 -16 15 0 5 -5 9 -11 9 -5 0 -8 -3 -6 -7 3 -5 -8 -8 -23 -8 -15 0 -26 3
-24 7 2 4 0 9 -6 13 -5 3 -10 0 -10 -7 0 -8 -3 -9 -8 -3 -7 10 -23 16 -54 18
-10 1 -18 5 -18 9 0 4 -3 7 -7 7 -22 -4 -33 2 -27 14 5 8 2 8 -9 -2 -13 -10
-17 -10 -17 -1 0 7 -7 10 -15 6 -9 -3 -18 1 -21 9 -4 8 -10 15 -16 15 -5 0 -6
-6 -2 -12 5 -8 0 -7 -10 2 -10 8 -24 15 -30 16 -6 0 -17 2 -24 2 -7 1 -10 7
-6 14 4 7 3 8 -4 4 -6 -4 -21 -1 -32 6 -17 11 -22 11 -30 -2 -8 -13 -10 -13
-10 2 0 12 -6 16 -22 13 -12 -3 -26 1 -30 8 -6 9 -8 8 -8 -2 0 -11 -4 -9 -14
5 -12 16 -17 17 -28 6 -11 -11 -10 -12 7 -7 16 6 17 5 5 -4 -11 -7 -21 -5 -39
12 -13 12 -21 16 -17 9z m186 -46 c0 -3 -4 -8 -10 -11 -5 -3 -10 -1 -10 4 0 6
5 11 10 11 6 0 10 -2 10 -4z"/>
<path d="M755 1700 c3 -5 8 -10 11 -10 2 0 4 5 4 10 0 6 -5 10 -11 10 -5 0 -7
-4 -4 -10z"/>
<path d="M1900 1571 c0 -6 4 -13 10 -16 6 -3 7 1 4 9 -7 18 -14 21 -14 7z"/>
<path d="M449 1360 c0 -10 -2 -11 -6 -2 -4 10 -8 10 -19 1 -7 -6 -21 -9 -29
-5 -10 3 -13 2 -10 -5 4 -6 -2 -13 -14 -16 -11 -3 -18 -9 -15 -14 3 -5 -2 -9
-10 -9 -9 0 -16 -7 -16 -16 0 -8 -4 -13 -9 -10 -5 3 -11 -8 -15 -25 -3 -19
-10 -28 -17 -23 -7 4 -7 -1 1 -16 7 -12 8 -20 3 -17 -5 3 -9 -12 -9 -34 0 -29
3 -38 13 -35 11 4 11 1 3 -14 -8 -14 -8 -20 0 -20 6 0 10 -7 8 -15 -3 -14 58
-75 75 -75 5 0 6 -4 2 -9 -3 -5 0 -13 6 -17 8 -4 9 -3 5 4 -4 7 -2 12 3 12 6
0 11 -6 11 -12 0 -9 4 -8 10 2 7 11 10 11 10 2 0 -8 5 -10 12 -6 8 5 9 1 5
-12 -7 -18 -7 -18 8 0 10 13 15 15 15 6 0 -7 3 -10 6 -7 4 3 16 2 27 -4 10 -6
17 -7 14 -2 -7 11 96 8 114 -3 7 -4 10 -3 6 2 -6 11 335 10 353 -1 8 -5 11 -4
7 2 -7 11 95 9 114 -3 7 -4 9 -3 6 3 -7 11 95 9 114 -3 7 -4 9 -3 6 3 -7 11
95 9 114 -3 7 -4 9 -3 6 3 -7 11 95 9 114 -3 8 -4 9 -3 5 4 -5 9 3 10 31 6 21
-3 41 -8 45 -11 4 -2 5 2 2 10 -3 8 1 14 10 14 8 0 13 -3 11 -7 -3 -4 75 -7
173 -6 97 1 185 -2 196 -7 11 -6 16 -5 13 0 -7 11 96 8 114 -3 7 -4 9 -3 6 3
-7 11 95 9 114 -3 7 -4 9 -3 6 3 -7 11 95 9 114 -3 7 -4 9 -3 6 3 -7 11 95 9
114 -3 7 -4 9 -3 6 3 -7 11 95 9 114 -3 7 -4 9 -3 6 3 -7 11 95 9 114 -3 8 -4
9 -3 5 4 -10 16 7 15 23 0 11 -10 13 -10 7 0 -5 7 -1 12 9 12 10 0 14 -5 10
-12 -4 -7 1 -4 9 6 15 19 16 19 16 1 0 -18 1 -18 15 1 9 12 14 14 15 6 0 -7 5
-10 10 -7 6 4 7 11 4 17 -5 8 -1 9 10 5 19 -7 83 38 78 55 -2 7 12 12 30 9 4
0 5 6 1 14 -3 9 3 25 12 35 17 18 14 25 -8 21 -5 -1 -6 3 -2 9 3 6 10 8 15 5
5 -3 8 19 8 50 -1 30 -5 49 -9 43 -4 -7 -5 -16 -2 -22 3 -5 2 -6 -4 -3 -5 3
-9 20 -8 36 1 17 -3 29 -9 28 -6 -1 -10 6 -8 15 2 12 -2 16 -13 12 -10 -4 -15
0 -15 10 0 9 -7 16 -16 16 -9 0 -12 5 -8 11 5 8 -3 10 -24 7 -19 -3 -28 0 -26
7 5 11 -22 16 -114 18 -30 1 -56 -2 -59 -7 -3 -4 -9 -2 -14 5 -8 12 -11 11
-19 -1 -5 -8 -10 -10 -10 -5 0 8 -19 10 -75 6 -6 -1 -19 -15 -29 -32 -11 -18
-14 -29 -8 -25 8 5 10 1 6 -9 -4 -9 -12 -14 -20 -11 -8 3 -11 -2 -9 -16 2 -11
-2 -27 -10 -35 -9 -8 -13 -19 -10 -24 4 -5 2 -9 -2 -9 -5 0 -14 -9 -21 -21
-11 -17 -11 -20 0 -13 7 4 0 -5 -15 -20 -16 -14 -33 -23 -39 -20 -7 5 -9 2 -5
-8 7 -19 -14 -18 -37 1 -8 7 -19 10 -24 7 -11 -7 -53 40 -44 50 4 4 1 4 -6 0
-17 -10 -65 21 -56 36 5 7 2 8 -6 3 -8 -5 -18 -1 -27 10 -9 14 -13 15 -13 4
-1 -10 -3 -9 -11 4 -6 9 -14 15 -20 12 -5 -4 -9 -1 -9 5 0 6 -4 8 -10 5 -5 -3
-10 -1 -10 5 0 6 -4 8 -10 5 -5 -3 -10 -1 -10 5 0 7 -7 9 -16 6 -8 -3 -13 -2
-10 3 3 5 -1 11 -9 15 -8 3 -15 0 -15 -7 -1 -7 -8 -3 -18 8 -9 11 -25 21 -34
21 -35 3 -39 4 -33 14 3 6 -1 7 -9 4 -9 -3 -13 -11 -9 -18 4 -6 -5 -3 -20 7
-14 9 -36 17 -47 17 -14 0 -19 4 -14 13 5 8 2 8 -9 -2 -14 -11 -17 -11 -17 0
0 11 -2 11 -10 -1 -7 -11 -10 -11 -10 -2 0 7 -8 12 -17 10 -10 -1 -24 1 -30 5
-8 5 -13 3 -13 -4 0 -8 -4 -8 -15 1 -12 10 -15 10 -15 -1 0 -11 -2 -11 -10 1
-9 13 -11 13 -20 0 -8 -12 -10 -12 -10 -1 0 10 -3 11 -14 2 -11 -9 -15 -9 -18
1 -4 10 -10 10 -32 0 -15 -7 -25 -9 -23 -5 6 9 -116 8 -131 -1 -6 -3 -13 0
-15 6 -4 10 -8 9 -16 -2 -8 -12 -11 -12 -11 -1 0 11 -3 11 -17 0 -11 -10 -14
-10 -9 -1 9 15 1 15 -26 1 -15 -8 -19 -8 -14 0 4 6 4 11 1 11 -4 0 -16 -5 -27
-11 -15 -8 -19 -8 -14 0 4 6 4 11 1 11 -4 0 -16 -5 -27 -11 -11 -6 -18 -7 -15
-2 6 9 -115 9 -131 -1 -6 -3 -13 0 -15 6 -4 10 -8 9 -16 -2 -8 -12 -11 -12
-11 -1 0 11 -3 11 -17 0 -11 -10 -14 -10 -9 -1 9 15 1 15 -26 1 -11 -6 -18 -7
-15 -2 7 11 -73 10 -91 -1 -7 -4 -12 -4 -12 1 0 10 -52 9 -67 0 -6 -4 -13 -2
-15 5 -4 10 -10 10 -32 0 -15 -7 -25 -9 -23 -5 6 9 -116 8 -131 -1 -6 -3 -13
0 -15 6 -4 10 -8 9 -16 -2 -6 -8 -11 -10 -11 -5 0 6 -13 10 -30 10 -16 0 -30
-4 -30 -10 0 -7 -3 -7 -8 0 -12 16 -62 13 -63 -5z"/>
<path d="M385 880 c-4 -6 -11 -8 -16 -5 -5 4 -9 0 -9 -7 0 -9 -3 -9 -10 2 -6
9 -10 10 -10 3 0 -6 -7 -19 -16 -27 -8 -9 -11 -16 -5 -16 6 0 11 -5 11 -11 0
-5 -4 -8 -8 -5 -5 3 -9 -1 -9 -9 0 -8 4 -12 8 -10 4 3 9 -2 13 -10 3 -8 0 -14
-6 -12 -6 1 -13 -4 -16 -12 -3 -10 0 -11 9 -5 11 6 10 3 -1 -11 -8 -10 -10
-16 -4 -12 7 4 15 0 18 -9 3 -8 2 -13 -3 -10 -5 3 -14 -1 -21 -9 -11 -13 -10
-14 6 -8 17 6 18 5 4 -12 -9 -11 -10 -16 -2 -11 6 4 12 2 12 -3 0 -6 -6 -11
-12 -11 -9 0 -9 -3 1 -9 13 -8 13 -12 0 -27 -9 -11 -9 -15 -1 -10 8 5 12 0 12
-18 0 -13 11 -37 24 -53 12 -15 21 -34 19 -40 -3 -7 3 -13 12 -13 11 0 15 -5
11 -16 -3 -8 -2 -12 4 -9 6 3 10 2 10 -4 0 -5 9 -13 20 -16 11 -3 20 -13 20
-22 0 -13 3 -13 15 -3 12 10 15 9 15 -6 0 -16 2 -17 10 -4 9 14 15 7 11 -14
-1 -5 5 -6 13 -3 9 4 22 -1 31 -9 8 -9 15 -12 15 -8 0 3 6 1 14 -5 10 -8 15
-9 18 -1 2 6 11 8 21 5 9 -4 14 -11 11 -16 -3 -5 7 -4 21 1 32 12 38 12 31 2
-3 -5 1 -9 8 -9 8 0 12 5 10 11 -7 18 140 14 162 -4 11 -9 15 -10 10 -2 -8 13
-1 14 108 14 47 0 71 -4 77 -13 7 -11 9 -9 9 5 0 20 0 20 16 0 8 -10 13 -14
10 -8 -3 7 4 14 17 16 30 6 49 -1 40 -15 -3 -7 2 -4 13 5 16 14 23 15 32 6 14
-14 64 -19 56 -6 -3 4 1 9 8 9 7 1 23 3 35 4 12 1 20 -1 17 -6 -2 -4 -11 -6
-18 -3 -8 3 -16 2 -19 -3 -3 -5 17 -8 45 -7 31 0 53 6 59 15 8 13 14 5 9 -16
-1 -5 7 -2 18 8 16 14 21 15 30 4 12 -13 148 -17 187 -4 51 16 95 16 106 -1 9
-15 10 -15 5 0 -4 13 2 16 37 15 25 -1 47 -7 55 -17 11 -13 11 -13 6 2 -7 20
16 19 40 -1 14 -12 16 -11 10 5 -7 18 -6 18 16 -1 13 -11 20 -15 17 -9 -4 7 0
15 8 18 9 3 18 -1 21 -9 5 -13 8 -12 21 1 13 13 18 13 32 1 22 -19 139 -16
151 3 8 12 10 11 10 -4 0 -19 0 -19 13 -1 8 11 16 14 20 8 4 -6 19 -8 33 -5
16 3 25 1 21 -5 -3 -5 0 -10 7 -10 9 0 12 7 8 16 -5 14 -3 14 10 3 12 -9 18
-10 23 -2 5 8 11 7 22 -2 10 -8 47 -13 103 -13 74 0 87 2 82 15 -5 13 -3 13
10 2 12 -9 18 -10 23 -2 5 8 12 7 24 -4 10 -9 21 -12 27 -7 5 5 29 12 54 15
25 3 46 5 48 5 2 1 0 7 -4 14 -5 8 -2 8 9 -2 11 -9 17 -10 17 -2 0 6 6 10 13
9 6 -2 11 2 10 8 -1 6 9 10 23 8 13 -1 22 1 20 4 -2 4 8 18 22 32 14 14 21 18
16 10 -6 -11 -3 -10 7 2 9 9 20 14 23 10 4 -3 4 2 0 12 -5 14 -4 17 4 12 7 -4
12 -1 12 8 0 9 5 16 10 16 6 0 10 7 10 15 0 8 5 15 11 15 5 0 8 4 4 9 -3 5 -1
13 5 16 8 5 8 11 0 20 -8 9 -8 15 0 20 6 3 8 10 5 15 -3 5 -1 11 4 15 6 3 8
12 4 20 -3 9 1 15 8 15 11 0 11 2 0 9 -21 13 -22 53 -2 46 13 -4 13 -3 -1 8
-14 11 -15 16 -5 27 9 10 9 13 -1 17 -6 3 -9 10 -5 16 4 6 8 20 8 29 1 13 -2
15 -11 7 -9 -8 -11 -5 -7 10 4 16 1 21 -15 21 -12 0 -24 5 -27 10 -4 6 -10 8
-14 6 -19 -12 -61 -14 -61 -3 0 9 -2 9 -8 1 -9 -13 -82 -15 -99 -2 -7 5 -14 5
-18 -2 -3 -5 -11 -10 -16 -10 -6 0 -7 5 -3 12 5 7 3 8 -7 2 -24 -14 -51 -16
-43 -2 6 10 5 10 -7 1 -18 -14 -30 -14 -48 0 -9 7 -12 7 -8 1 4 -7 -11 -10
-43 -10 -30 -1 -47 3 -43 9 4 6 1 7 -8 1 -22 -13 -43 -14 -51 -1 -6 9 -8 9 -8
0 0 -12 -45 -12 -57 0 -3 4 -12 2 -20 -4 -10 -9 -17 -8 -30 2 -11 10 -14 10
-9 1 8 -14 -19 -12 -43 2 -9 6 -12 5 -8 -1 3 -5 -14 -9 -43 -9 -32 -1 -47 3
-43 10 3 6 0 5 -8 -1 -7 -7 -17 -13 -22 -13 -4 0 -5 6 -1 13 6 9 4 9 -7 1 -20
-15 -61 -16 -52 -1 5 9 3 9 -8 1 -16 -12 -29 -12 -48 0 -9 6 -12 5 -8 -1 3 -5
-14 -9 -43 -9 -33 -1 -47 3 -43 10 4 6 0 5 -9 -2 -17 -14 -39 -13 -50 3 -5 7
-8 7 -8 0 0 -6 -22 -11 -50 -11 -33 0 -47 3 -43 10 4 6 0 5 -9 -2 -17 -14 -39
-13 -50 3 -5 6 -8 6 -8 -1 0 -6 -19 -10 -47 -9 -27 1 -48 3 -48 4 0 2 -8 4
-18 6 -9 2 -15 0 -12 -4 2 -4 -11 -8 -30 -8 -22 0 -32 4 -28 11 4 7 1 6 -8 -1
-23 -19 -25 -19 -44 -3 -11 8 -16 10 -12 4 4 -7 -11 -10 -43 -10 -33 -1 -47 3
-43 10 4 6 -1 5 -10 -3 -14 -11 -20 -11 -34 0 -9 8 -14 9 -10 3 4 -7 -2 -11
-18 -11 -14 0 -22 4 -18 10 4 6 1 7 -8 1 -21 -13 -39 -14 -39 -1 0 8 -3 9 -8
1 -9 -13 -90 -15 -98 -2 -3 5 -12 4 -20 -3 -11 -9 -18 -8 -31 2 -9 8 -14 9
-11 4 4 -7 -13 -11 -47 -11 -36 0 -52 3 -48 10 4 6 0 5 -9 -2 -17 -14 -39 -13
-50 3 -5 7 -8 7 -8 0 0 -6 -22 -11 -50 -11 -33 0 -47 3 -43 10 4 6 0 5 -9 -2
-17 -14 -39 -13 -50 3 -5 6 -8 6 -8 -1 0 -13 -58 -13 -79 0 -9 6 -12 5 -8 -1
3 -5 -14 -9 -43 -9 -30 -1 -47 3 -43 9 4 6 1 7 -8 1 -22 -13 -42 -14 -58 -1
-12 9 -13 9 -7 0 9 -16 1 -16 -24 -3 -13 7 -21 7 -25 0z m959 -508 c3 -5 -1
-9 -9 -9 -8 0 -12 4 -9 9 3 4 7 8 9 8 2 0 6 -4 9 -8z m206 4 c0 -3 -4 -8 -10
-11 -5 -3 -10 -1 -10 4 0 6 5 11 10 11 6 0 10 -2 10 -4z m525 -5 c-9 -8 -36
-10 -30 -2 2 4 11 8 20 8 8 0 13 -3 10 -6z m35 5 c0 -3 -4 -8 -10 -11 -5 -3
-10 -1 -10 4 0 6 5 11 10 11 6 0 10 -2 10 -4z m320 0 c0 -3 -4 -8 -10 -11 -5
-3 -10 -1 -10 4 0 6 5 11 10 11 6 0 10 -2 10 -4z"/>
<path d="M924 363 c4 -4 16 -8 28 -10 28 -4 18 6 -12 12 -12 2 -20 1 -16 -2z"/>
<path d="M1655 360 c-2 -3 5 -6 15 -7 11 -1 22 2 24 5 3 4 -4 8 -15 8 -11 0
-22 -3 -24 -6z"/>
<path d="M1755 360 c-3 -6 1 -7 9 -4 18 7 21 14 7 14 -6 0 -13 -4 -16 -10z"/>
</g>
</svg>
